# xmcd CD database file
#
# Track frame offsets:
#	150
#	12953
#	22883
#	33550
#	44936
#	57584
#	72499
#	86471
#	98817
#	108018
#	120328
#	132137
#
# Disc length: 1898 seconds
#
# Revision: 0
# Processed by: cddbd v1.5PL3 Copyright (c) Steve Scherf et al.
# Submitted via: CDex 1.51
#
DISCID=9b07680c
DTITLE=Billy Strange - Strange Country
DYEAR=1996
DGENRE=Country
TTITLE0=Don't Think Twice It's Alright
TTITLE1=Guitar Country
TTITLE2=Allentown Jail
TTITLE3=Tom Cat
TTITLE4=If I Were Free
TTITLE5=Strange Country
TTITLE6=Daddy Roll 'em
TTITLE7=Sng Hallelujah
TTITLE8=Green, Green
TTITLE9=Stranger in Your Town
TTITLE10=Doesn't Anybody Know My Name
TTITLE11=Sangaree
EXTD=YEAR: 1996
EXTT0=
EXTT1=
EXTT2=
EXTT3=
EXTT4=
EXTT5=
EXTT6=
EXTT7=
EXTT8=
EXTT9=
EXTT10=
EXTT11=
PLAYORDER=
